<svg xmlns="http://www.w3.org/2000/svg" class="icon" xml:space="preserve" id="Layer_1" x="0" y="0" style="enable-background:new 0 0 122.88 116.26" version="1.1" viewBox="0 0 122.88 116.26">
  <style>
    .st0{fill-rule:evenodd;clip-rule:evenodd}
  </style>
  <path d="M61.48 33.29c7.07 0 13.63 2.23 18.99 6.03l-.09.12c-.73 1.02-1.53 1.97-2.39 2.85-.86.87-1.75 1.64-2.68 2.33-.26.17-.49.38-.7.63-.04.05-.09.11-.12.16a24.443 24.443 0 0 0-13.01-3.73c-4.74 0-9.17 1.35-12.92 3.67-.19-.27-.43-.51-.71-.72a22.71 22.71 0 0 1-5.16-5.27l-.09-.12a32.734 32.734 0 0 1 18.88-5.95zm32.75 29.44c.12 1.15.18 2.31.18 3.49 0 13.18-7.74 24.55-18.93 29.81-.03-.06-.05-.12-.08-.18-.55-1.11-1-2.26-1.36-3.44-.36-1.17-.62-2.38-.79-3.62-.03-.23-.09-.46-.17-.69-.03-.07-.05-.13-.08-.2 7.76-4.13 13.04-12.29 13.04-21.69 0-.47-.01-.94-.04-1.41.29-.04.59-.11.88-.24 1.09-.47 2.27-.87 3.51-1.19 1.2-.31 2.38-.51 3.52-.62.1.01.21 0 .32-.02zM47.98 96.27C36.52 91.11 28.55 79.6 28.55 66.22c0-1.32.08-2.62.23-3.9.1.02.19.03.29.04 1.24.1 2.46.29 3.64.57 1.15.28 2.32.66 3.51 1.16v-.01c.19.08.38.14.58.18l.2.03c-.05.63-.07 1.27-.07 1.92 0 9.62 5.53 17.94 13.59 21.97-.1.25-.18.51-.22.79-.17 1.2-.45 2.4-.82 3.6-.36 1.14-.8 2.25-1.31 3.3-.08.13-.14.26-.19.4z" class="st0"/>
  <path d="M114.81 103.94c-10.55 12.61-28.94 16.2-43.67 7.7-3.9-2.25-7.2-5.15-9.83-8.49-10.48 12.99-29.15 16.78-44.06 8.17a34.385 34.385 0 0 1-7.31-5.64c1.23 1.06 2.58 2.02 4.04 2.87 12.67 7.32 28.88 2.97 36.2-9.7 4.57-7.91 4.59-17.21.88-24.85l4.81-2.98a7.9 7.9 0 0 0 5.89 2.62c2.17 0 4.14-.87 5.57-2.29l.44.26 4.81 2.44c-6.1 12.28-1.67 27.36 10.37 34.31 10.6 6.11 23.7 3.97 31.86-4.42zM69.13 68.62c.36-.9.56-1.89.56-2.92 0-3.96-2.9-7.23-6.68-7.83v-5.59c8.56-.48 16.73-5.13 21.34-13.11 7.26-12.58 2.95-28.67-9.63-35.93A26.26 26.26 0 0 0 65.96.08c16.94 2.19 30.03 16.67 30.03 34.2 0 4.73-.95 9.24-2.68 13.35a34.5 34.5 0 0 1 12.32 4.27c13.65 7.88 19.88 23.69 16.22 38.25 1.83-10.51-2.93-21.52-12.71-27.16-12.06-6.96-27.36-3.24-34.94 8.23l-1.82-.93-3.25-1.67zm-14.9-.4-4.77 2.95c-2.21-3.4-5.23-6.35-8.98-8.52-12.67-7.32-28.88-2.97-36.2 9.7a26.325 26.325 0 0 0-3.14 17.87c-2.23-8.48-1.25-17.81 3.49-26.01 5.5-9.52 14.84-15.43 24.93-16.89a34.475 34.475 0 0 1-2.55-13.04c0-17.74 13.4-32.36 30.63-34.27C50 1.16 42.94 5.65 38.78 12.86c-7.26 12.58-2.95 28.67 9.63 35.93 3.59 2.08 7.48 3.2 11.35 3.47v5.77a7.942 7.942 0 0 0-5.94 7.68c0 .87.15 1.72.41 2.51z" class="st0"/>
</svg>


