<svg xmlns="http://www.w3.org/2000/svg" aria-hidden="true" style="position:absolute;width:0;height:0;overflow:hidden">
  <defs>
    <symbol id="icon-facebook" viewBox="0 0 32 32">
      <path d="M32 16.04C32 7.186 24.832 0 16 0S0 7.186 0 16.04c0 7.763 5.504 14.228 12.8 15.719V20.852H9.6V16.04h3.2v-4.01c0-3.096 2.512-5.614 5.6-5.614h4v4.812h-3.2c-.88 0-1.6.722-1.6 1.604v3.208h4.8v4.812h-4.8V32c8.08-.802 14.4-7.635 14.4-15.96z"/>
    </symbol>
    <symbol id="icon-youtube" viewBox="0 0 32 32">
      <path d="m18.672 15.722-3.743-1.747c-.327-.152-.595.018-.595.38v3.29c0 .362.268.532.595.38l3.742-1.747c.328-.153.328-.403.002-.557zM16 0C7.163 0 0 7.163 0 16s7.163 16 16 16 16-7.163 16-16S24.837 0 16 0zm0 22.5c-8.19 0-8.333-.738-8.333-6.5S7.81 9.5 16 9.5s8.333.738 8.333 6.5-.143 6.5-8.333 6.5z"/>
    </symbol>
    <symbol id="icon-instagram" viewBox="0 0 32 32">
      <path d="M23.385 0H8.616A8.623 8.623 0 0 0 .001 8.615v14.769a8.623 8.623 0 0 0 8.615 8.615h14.769A8.627 8.627 0 0 0 32 23.384V8.615A8.627 8.627 0 0 0 23.385 0zM16 23.385a7.389 7.389 0 0 1-6.823-4.558 7.384 7.384 0 1 1 6.822 4.559zm9.231-14.77a1.847 1.847 0 1 1 0-3.695 1.847 1.847 0 0 1 0 3.695zM20.923 16a4.92 4.92 0 0 1-5.883 4.828 4.93 4.93 0 0 1-2.521-1.347 4.93 4.93 0 0 1-1.067-5.365 4.925 4.925 0 0 1 8.029-1.597A4.923 4.923 0 0 1 20.923 16z"/>
    </symbol>
    <symbol id="icon-profile" viewBox="0 0 32 32">
      <path d="M27 0H3C1.35 0 0 1.35 0 3v26c0 1.65 1.35 3 3 3h24c1.65 0 3-1.35 3-3V3c0-1.65-1.35-3-3-3zm-1 28H4V4h22v24zM8 18h14v2H8zm0 4h14v2H8zm2-13a3 3 0 1 1 6 0 3 3 0 0 1-6 0zm5 3h-4c-1.65 0-3 .9-3 2v2h10v-2c0-1.1-1.35-2-3-2z"/>
    </symbol>



<svg xmlns="http://www.w3.org/2000/svg" class="icon-dna" width="30" height="30"  viewBox="0 0 1024 1024">
  <path fill="#2F4BFF" d="M528 872c1.6-16 16-28.8 32-28.8 14.4 0 27.2 9.6 30.4 24l56-3.2c4.8 0 8 3.2 8 8s-3.2 8-8 8l-57.6 3.2c-3.2 14.4-16 24-30.4 24-12.8 0-25.6-8-30.4-20.8L384 896c-4.8 0-8-3.2-8-8s3.2-8 8-8l144-8zm-94.4-320c3.2-14.4 16-24 30.4-24s27.2 9.6 30.4 24H640c4.8 0 8 3.2 8 8s-3.2 8-8 8H494.4c-3.2 14.4-16 24-30.4 24s-27.2-9.6-30.4-24H392c-4.8 0-8-3.2-8-8s3.2-8 8-8h41.6zm112-56c3.2-14.4 16-24 30.4-24 12.8 0 24 8 28.8 19.2l33.6-3.2c4.8 0 8 3.2 8 8s-3.2 8-8 8l-30.4 3.2c-1.6 16-14.4 28.8-32 28.8-14.4 0-27.2-9.6-30.4-24l-168 16c-4.8 0-8-3.2-8-8s3.2-8 8-8l168-16zm-96-361.6c3.2-12.8 16-22.4 30.4-22.4 16 0 30.4 12.8 32 28.8L640 152c4.8 0 8 4.8 8 8s-4.8 8-8 8l-129.6-11.2c-4.8 11.2-16 19.2-30.4 19.2-16 0-28.8-11.2-32-25.6l-72-6.4c-4.8 0-8-4.8-8-8 0-4.8 4.8-8 8-8l73.6 6.4zM435.2 440c-4.8 1.6-8 0-9.6-4.8-1.6-4.8 0-8 4.8-9.6l160-56c4.8-1.6 8 0 9.6 4.8 1.6 4.8 0 8-4.8 9.6l-160 56zm1.6-216c-4.8-1.6-6.4-6.4-4.8-11.2 1.6-4.8 6.4-6.4 11.2-4.8l152 64c4.8 1.6 6.4 6.4 4.8 11.2-1.6 4.8-6.4 6.4-11.2 4.8l-152-64zm-38.4-40c-4.8-1.6-6.4-4.8-6.4-9.6 1.6-4.8 4.8-6.4 9.6-6.4l224 48c4.8 1.6 6.4 4.8 6.4 9.6-1.6 4.8-4.8 6.4-9.6 6.4l-224-48zM368 104c-4.8 0-8-3.2-8-8s3.2-8 8-8h288c4.8 0 8 3.2 8 8s-3.2 8-8 8H368zm235.2 656-152 64c-4.8 1.6-8 0-11.2-4.8-1.6-4.8 0-8 4.8-11.2l152-64c4.8-1.6 8 0 11.2 4.8 1.6 4.8-1.6 9.6-4.8 11.2zm-196.8 88 216-48c4.8-1.6 8 1.6 9.6 6.4 1.6 4.8-1.6 8-6.4 9.6l-216 48c-4.8 1.6-8-1.6-9.6-6.4 0-4.8 1.6-8 6.4-9.6zM368 936c-4.8 0-8-3.2-8-8s3.2-8 8-8h288c4.8 0 8 3.2 8 8s-3.2 8-8 8H368zm25.6-448c-4.8 1.6-8-1.6-9.6-6.4-1.6-4.8 1.6-8 6.4-9.6l232-48c4.8-1.6 8 1.6 9.6 6.4 1.6 4.8-1.6 8-6.4 9.6l-232 48zm20.8 120c-4.8 0-8-4.8-6.4-9.6s4.8-8 9.6-6.4l208 24c4.8 0 8 4.8 6.4 9.6 0 4.8-4.8 8-9.6 6.4l-208-24zm62.4 40c-4.8-1.6-6.4-6.4-4.8-9.6s6.4-6.4 9.6-4.8l112 40c4.8 1.6 6.4 6.4 4.8 9.6s-6.4 6.4-9.6 4.8l-112-40z"/>
  <path fill="#050D42" d="M553.6 305.6C611.2 240 640 171.2 640 80c0-9.6 6.4-16 16-16s16 6.4 16 16c0 100.8-33.6 177.6-97.6 249.6C636.8 400 664 456 664 528c0 68.8-25.6 123.2-80 185.6C641.6 776 672 848 672 944c0 9.6-6.4 16-16 16s-16-6.4-16-16c0-86.4-25.6-150.4-78.4-208-12.8 12.8-27.2 27.2-43.2 41.6-4.8 4.8-51.2 46.4-64 57.6-22.4 20.8-36.8 36.8-48 52.8-16 20.8-22.4 38.4-22.4 56 0 9.6-6.4 16-16 16s-16-6.4-16-16c0-25.6 9.6-49.6 28.8-75.2 12.8-17.6 28.8-35.2 52.8-56 12.8-11.2 59.2-54.4 64-57.6 16-14.4 28.8-27.2 41.6-40-11.2-11.2-24-20.8-36.8-32-12.8-9.6-89.6-64-107.2-80-28.8-24-43.2-48-43.2-75.2 0-19.2 8-38.4 22.4-56 12.8-16 28.8-32 56-54.4 6.4-6.4 32-25.6 35.2-28.8 14.4-11.2 25.6-20.8 36.8-30.4 11.2-9.6 20.8-19.2 30.4-28.8l-35.2-35.2c-1.6-1.6-33.6-33.6-43.2-41.6-16-16-28.8-28.8-40-41.6-41.6-48-62.4-88-62.4-131.2 0-9.6 6.4-16 16-16s16 6.4 16 16c0 33.6 17.6 67.2 54.4 108.8 11.2 12.8 22.4 24 38.4 40 9.6 9.6 40 40 43.2 41.6 11.2 12.8 22.4 24 33.6 35.2zm6.4 385.6c48-56 72-104 72-163.2 0-60.8-24-112-78.4-174.4-9.6 9.6-19.2 19.2-30.4 28.8 11.2-9.6-105.6 88-123.2 108.8-11.2 12.8-16 25.6-16 36.8 0 16 9.6 32 32 51.2 16 14.4 91.2 67.2 105.6 78.4 14.4 11.2 27.2 20.8 38.4 33.6z"/>
</svg> 


    
  </defs>
</svg>